<svg width="40" height="40" viewBox="0 0 40 40" fill="none" xmlns="http://www.w3.org/2000/svg">
<path d="M31.6666 36.6693C29.8333 36.6693 28.2638 36.0165 26.9583 34.7109C25.6527 33.4054 25 31.8359 25 30.0026V22.5026C25 21.3359 25.4027 20.3498 26.2083 19.5443C27.0138 18.7387 28 18.3359 29.1666 18.3359C30.3333 18.3359 31.3194 18.7387 32.125 19.5443C32.9305 20.3498 33.3333 21.3359 33.3333 22.5026V30.0026H30V22.5026C30 22.2804 29.9166 22.0859 29.75 21.9193C29.5833 21.7526 29.3888 21.6693 29.1666 21.6693C28.9444 21.6693 28.75 21.7526 28.5833 21.9193C28.4166 22.0859 28.3333 22.2804 28.3333 22.5026V30.0026C28.3333 30.9193 28.66 31.7043 29.3133 32.3576C29.9666 33.0109 30.7511 33.337 31.6666 33.3359C32.5822 33.3348 33.3672 33.0087 34.0216 32.3576C34.6761 31.7065 35.0022 30.9215 35 30.0026V23.3359H38.3333V30.0026C38.3333 31.8359 37.6805 33.4054 36.375 34.7109C35.0694 36.0165 33.5 36.6693 31.6666 36.6693ZM4.99996 30.0026C4.08329 30.0026 3.29885 29.6765 2.64663 29.0243C1.9944 28.372 1.66774 27.587 1.66663 26.6693V6.66927C1.66663 5.7526 1.99329 4.96816 2.64663 4.31594C3.29996 3.66372 4.0844 3.33705 4.99996 3.33594H31.6666C32.5833 3.33594 33.3683 3.6626 34.0216 4.31594C34.675 4.96927 35.0011 5.75372 35 6.66927V16.6693H29.1666C27.5555 16.6693 26.1805 17.2387 25.0416 18.3776C23.9027 19.5165 23.3333 20.8915 23.3333 22.5026V30.0026H4.99996ZM18.3333 18.3359L31.6666 10.0026V6.66927L18.3333 15.0026L4.99996 6.66927V10.0026L18.3333 18.3359Z" fill="black"/>
</svg>
