<svg width="94" height="94" viewBox="0 0 94 94" fill="none" xmlns="http://www.w3.org/2000/svg">
<path fill-rule="evenodd" clip-rule="evenodd" d="M65.2908 51.4258C70.6567 55.0683 74.4167 60.0033 74.4167 66.5833V78.3333H86.1667C88.3208 78.3333 90.0833 76.5708 90.0833 74.4166V66.5833C90.0833 58.0449 76.1008 52.9924 65.2908 51.4258Z" fill="#F8F8FF"/>
<path d="M35.25 47.0003C43.9025 47.0003 50.9167 39.9861 50.9167 31.3337C50.9167 22.6812 43.9025 15.667 35.25 15.667C26.5975 15.667 19.5833 22.6812 19.5833 31.3337C19.5833 39.9861 26.5975 47.0003 35.25 47.0003Z" fill="#F8F8FF"/>
<path fill-rule="evenodd" clip-rule="evenodd" d="M58.75 47.0003C67.4058 47.0003 74.4167 39.9895 74.4167 31.3337C74.4167 22.6778 67.4058 15.667 58.75 15.667C56.9092 15.667 55.1858 16.0587 53.5408 16.607C56.9112 20.7752 58.7499 25.9733 58.7499 31.3337C58.7499 36.694 56.9112 41.8921 53.5408 46.0603C55.1858 46.6087 56.9092 47.0003 58.75 47.0003ZM35.25 50.917C24.7925 50.917 3.91667 56.1653 3.91667 66.5837V74.417C3.91667 76.5712 5.67917 78.3337 7.83334 78.3337H62.6667C64.8208 78.3337 66.5833 76.5712 66.5833 74.417V66.5837C66.5833 56.1653 45.7075 50.917 35.25 50.917Z" fill="#F8F8FF"/>
</svg>
